# xmcd CD database file generated by freedbAccess_ocx
#
# Track frame offsets:
#       225
#       10864
#       26701
#       40682
#       62833
#       82201
#       96957
#       109978
#       123286
#       135098
#       152376
#       167064
#       186145
#       197820
#       208852
#       222771
#
# Disc length: 3176 seconds
#
# Revision: 0
# Processed by: cddbd v1.4PL0 Copyright (c) Steve Scherf et al.
# Submitted via: CDnGo 2.00
#
DISCID=d90c6510
DTITLE=Stodola Band - Country Jukebox
DYEAR=1900
DGENRE=Country
TTITLE0=Chel bych vas mit klonovanou
TTITLE1=Ztracim svou lasku
TTITLE2=Skala
TTITLE3=Par deci vina
TTITLE4=Honky tonk frajer
TTITLE5=Kanibalove
TTITLE6=Me muzes rikat co chces
TTITLE7=Hrajou Rock and Roll
TTITLE8=Ptaci nareci
TTITLE9=Kampa
TTITLE10=Ty si snad delas ze mne fory
TTITLE11=Reka
TTITLE12=Podzemni swing
TTITLE13=Zdedila prachy
TTITLE14=Do 1/2 4 od 7
TTITLE15=Starou mi dnes nekdo sloh
EXTD=
EXTT0=
EXTT1=
EXTT2=
EXTT3=
EXTT4=
EXTT5=
EXTT6=
EXTT7=
EXTT8=
EXTT9=
EXTT10=
EXTT11=
EXTT12=
EXTT13=
EXTT14=
EXTT15=
PLAYORDER=
